<svg width="200" height="200" viewBox="0 0 200 200" xmlns="http://www.w3.org/2000/svg">
  <!-- 头型 -->
  <rect x="50" y="50" width="100" height="90" rx="40" ry="40" fill="white" stroke="#333" stroke-width="4"/>
  
  <!-- 左耳 (黑色) -->
  <path d="M55 70 Q30 80 30 110 Q30 140 55 120 Z" fill="#333"/>
  
  <!-- 右耳 (白色带描边) -->
  <path d="M145 70 Q170 80 170 110 Q170 140 145 120 Z" fill="white" stroke="#333" stroke-width="4"/>
  
  <!-- 眼睛斑点 (左眼) -->
  <circle cx="80" cy="95" r="18" fill="#333"/>
  
  <!-- 眼睛 -->
  <circle cx="80" cy="95" r="4" fill="white"/> <!-- 左眼珠 -->
  <circle cx="120" cy="95" r="4" fill="#333"/> <!-- 右眼珠 -->
  
  <!-- 鼻子 -->
  <ellipse cx="100" cy="115" rx="10" ry="8" fill="#333"/>
  <circle cx="97" cy="113" r="2" fill="white" opacity="0.5"/> <!-- 鼻子高光 -->
  
  <!-- 嘴巴 -->
  <path d="M100 123 L100 135" stroke="#333" stroke-width="3" stroke-linecap="round"/>
  <path d="M85 130 Q100 145 115 130" fill="none" stroke="#333" stroke-width="3" stroke-linecap="round"/>
  
  <!-- 小舌头 -->
  <path d="M95 140 Q100 148 105 140" fill="#FF6B6B" stroke="none"/>
</svg>